<svg width="24" height="25" viewBox="0 0 24 25" fill="none" xmlns="http://www.w3.org/2000/svg">
<g id="Component 5">
<path id="Vector" d="M3.22615 11.9036L15.1395 6.85766C16.3155 6.33205 20.3036 4.65008 20.3036 4.65008C20.3036 4.65008 22.1443 3.91422 21.9909 5.70131C21.9398 6.43717 21.5307 9.01267 21.1217 11.7984L19.8435 20.0506C19.8435 20.0506 19.7412 21.2595 18.872 21.4697C18.0028 21.68 16.5711 20.7339 16.3155 20.5236C16.111 20.3659 12.4807 18.0007 11.1513 16.8443C10.7934 16.529 10.3844 15.8982 11.2025 15.1624C13.0431 13.4278 15.2417 11.2728 16.5711 9.90622C17.1847 9.27548 17.7982 7.80376 15.2417 9.59085L8.03238 14.5842C8.03238 14.5842 7.2143 15.1098 5.6804 14.6367C4.14649 14.1637 2.35694 13.533 2.35694 13.533C2.35694 13.533 1.12981 12.7445 3.22615 11.9036Z" fill="#8D959D"/>
</g>
</svg>
