<svg width="24" height="25" viewBox="0 0 24 25" fill="none" xmlns="http://www.w3.org/2000/svg">
<g id="Component 5">
<path id="Vector" fill-rule="evenodd" clip-rule="evenodd" d="M19.4858 5.00686C18.5633 4.08269 17.4657 3.34989 16.2566 2.85092C15.0475 2.35195 13.751 2.09673 12.442 2.10004C6.95342 2.10004 2.48532 6.54582 2.4831 12.0106C2.4831 13.7571 2.94122 15.4617 3.81199 16.9653L2.3999 22.1L7.67887 20.7211C9.13909 21.5122 10.775 21.9271 12.4376 21.9278H12.442C17.9295 21.9278 22.3976 17.482 22.3999 12.0172C22.4036 10.715 22.148 9.42503 21.6479 8.22176C21.1477 7.01848 20.4129 5.92579 19.4858 5.00686ZM15.2817 13.2791C15.5102 13.3619 16.7326 13.9603 16.9822 14.085C17.0304 14.1091 17.0756 14.1309 17.1176 14.1511C17.2909 14.2347 17.4092 14.2918 17.4592 14.3754C17.5213 14.4791 17.5213 14.9748 17.3139 15.5533C17.1065 16.1318 16.1126 16.6595 15.6345 16.7302C15.2052 16.7931 14.6628 16.8207 14.0671 16.6319C13.7066 16.5171 13.2429 16.3648 12.6484 16.1097C10.3134 15.1058 8.73579 12.8526 8.44032 12.4306C8.41995 12.4016 8.40568 12.3812 8.39767 12.3705L8.39442 12.3662C8.25871 12.1854 7.38159 11.0168 7.38159 9.80813C7.38159 8.66761 7.94399 8.07038 8.20348 7.79482C8.22129 7.77591 8.23768 7.75851 8.25236 7.74255C8.33575 7.64826 8.43781 7.57213 8.55215 7.51894C8.66649 7.46575 8.79063 7.43664 8.9168 7.43344C9.07547 7.43287 9.23414 7.43581 9.39268 7.44227C9.41016 7.44303 9.42833 7.44286 9.44709 7.44269C9.59258 7.44137 9.7739 7.43972 9.95174 7.8651C10.0213 8.03133 10.1235 8.27887 10.2311 8.53921C10.4442 9.0552 10.6781 9.62144 10.7194 9.70435C10.7826 9.828 10.8236 9.97262 10.7404 10.1382C10.7278 10.1633 10.7162 10.187 10.705 10.2096C10.6429 10.3359 10.5973 10.4284 10.492 10.5511C10.4505 10.5993 10.4078 10.6513 10.365 10.7033C10.2795 10.8074 10.1939 10.9114 10.1192 10.985C9.9939 11.1086 9.86411 11.2422 10.0094 11.4906C10.1547 11.739 10.6539 12.5493 11.3938 13.2062C12.1894 13.9122 12.881 14.2106 13.231 14.3616C13.2992 14.391 13.3544 14.4148 13.3949 14.435C13.6434 14.5586 13.7887 14.5387 13.934 14.3731C14.0793 14.2075 14.5563 13.65 14.7227 13.4027C14.8891 13.1554 15.0543 13.1963 15.2817 13.2791Z" fill="#8D959D"/>
</g>
</svg>
